<svg xmlns="http://www.w3.org/2000/svg" viewBox="0 0 200 280" fill="none">
  <!-- Warm glow wash behind bud -->
  <ellipse cx="100" cy="95" rx="52" ry="58" fill="#FFA500" opacity="0.12"/>
  <ellipse cx="100" cy="95" rx="38" ry="44" fill="#FFA500" opacity="0.1"/>

  <!-- Stem -->
  <path d="M100 165 C99 185, 97 215, 96 240 C95 255, 97 268, 98 278" stroke="#4CAF50" stroke-width="3.5" stroke-linecap="round" fill="none"/>
  <path d="M100 165 C101 188, 99 218, 98 243 C97 257, 99 270, 100 278" stroke="#3D8B37" stroke-width="1.5" stroke-linecap="round" fill="none" opacity="0.4"/>

  <!-- Thorns -->
  <path d="M99 198 L105 192" stroke="#4CAF50" stroke-width="2" stroke-linecap="round"/>
  <path d="M98 232 L92 226" stroke="#4CAF50" stroke-width="2" stroke-linecap="round"/>

  <!-- Leaf 1 - right -->
  <path d="M99 210 C110 200, 135 188, 155 182 C150 194, 132 208, 112 216 C105 218, 100 215, 99 213" fill="#4CAF50" stroke="#333" stroke-width="1.5" stroke-linejoin="round"/>
  <path d="M100 213 C120 204, 138 195, 152 185" stroke="#3D8B37" stroke-width="1" fill="none" stroke-linecap="round"/>
  <path d="M115 208 L122 200" stroke="#3D8B37" stroke-width="0.7" fill="none" stroke-linecap="round"/>
  <path d="M128 202 L134 194" stroke="#3D8B37" stroke-width="0.7" fill="none" stroke-linecap="round"/>
  <path d="M140 196 L145 189" stroke="#3D8B37" stroke-width="0.7" fill="none" stroke-linecap="round"/>
  <!-- Serrated edge hints -->
  <path d="M118 190 L120 188 L122 190" stroke="#333" stroke-width="0.6" fill="none" opacity="0.3"/>
  <path d="M130 186 L132 184 L134 186" stroke="#333" stroke-width="0.6" fill="none" opacity="0.3"/>

  <!-- Leaf 2 - left -->
  <path d="M98 245 C86 235, 58 220, 40 216 C46 228, 68 242, 90 250 C95 251, 98 248, 98 247" fill="#4CAF50" stroke="#333" stroke-width="1.5" stroke-linejoin="round"/>
  <path d="M97 248 C78 238, 58 228, 43 220" stroke="#3D8B37" stroke-width="1" fill="none" stroke-linecap="round"/>
  <path d="M82 240 L75 233" stroke="#3D8B37" stroke-width="0.7" fill="none" stroke-linecap="round"/>
  <path d="M68 234 L62 228" stroke="#3D8B37" stroke-width="0.7" fill="none" stroke-linecap="round"/>

  <!-- Sepals -->
  <path d="M85 162 C78 152, 65 135, 60 122 C68 128, 82 148, 90 160" fill="#4CAF50" stroke="#333" stroke-width="1.2" stroke-linejoin="round"/>
  <path d="M115 162 C122 152, 135 135, 140 122 C132 128, 118 148, 110 160" fill="#4CAF50" stroke="#333" stroke-width="1.2" stroke-linejoin="round"/>
  <path d="M93 165 C86 158, 72 148, 65 138 C74 142, 88 155, 95 163" fill="#3D8B37" stroke="#333" stroke-width="1" stroke-linejoin="round"/>
  <path d="M107 165 C114 158, 128 148, 135 138 C126 142, 112 155, 105 163" fill="#3D8B37" stroke="#333" stroke-width="1" stroke-linejoin="round"/>
  <path d="M100 168 C100 155, 100 140, 100 128 C100 140, 100 155, 100 165" fill="#3D8B37" stroke="#333" stroke-width="1" stroke-linejoin="round"/>

  <!-- Outer petals - tight rosebud shape -->
  <!-- Outer left wrap -->
  <path d="M68 115 C62 95, 68 68, 82 48 C88 58, 85 82, 84 100 C83 110, 78 122, 72 128 C68 130, 65 125, 68 115Z" fill="#FF8C00" stroke="#333" stroke-width="1.5" stroke-linejoin="round"/>
  <path d="M72 110 C70 92, 74 72, 84 56" stroke="#E67300" stroke-width="1" fill="none" opacity="0.5" stroke-linecap="round"/>

  <!-- Outer right wrap -->
  <path d="M132 115 C138 95, 132 68, 118 48 C112 58, 115 82, 116 100 C117 110, 122 122, 128 128 C132 130, 135 125, 132 115Z" fill="#FF8C00" stroke="#333" stroke-width="1.5" stroke-linejoin="round"/>
  <path d="M128 110 C130 92, 126 72, 116 56" stroke="#E67300" stroke-width="1" fill="none" opacity="0.5" stroke-linecap="round"/>

  <!-- Outer front petal -->
  <path d="M78 140 C68 128, 62 105, 68 85 C76 95, 80 112, 85 128 C88 135, 82 142, 80 142Z" fill="#FF8C00" stroke="#333" stroke-width="1.5" stroke-linejoin="round"/>
  <path d="M122 140 C132 128, 138 105, 132 85 C124 95, 120 112, 115 128 C112 135, 118 142, 120 142Z" fill="#FF8C00" stroke="#333" stroke-width="1.5" stroke-linejoin="round"/>

  <!-- Middle petals - tighter -->
  <path d="M80 105 C76 88, 82 62, 92 45 C96 56, 92 78, 90 95 C89 105, 85 112, 82 112Z" fill="#FF9A22" stroke="#333" stroke-width="1.3" stroke-linejoin="round"/>
  <path d="M82 100 C80 85, 86 65, 93 52" stroke="#E67300" stroke-width="0.8" fill="none" opacity="0.5" stroke-linecap="round"/>

  <path d="M120 105 C124 88, 118 62, 108 45 C104 56, 108 78, 110 95 C111 105, 115 112, 118 112Z" fill="#FF9A22" stroke="#333" stroke-width="1.3" stroke-linejoin="round"/>
  <path d="M118 100 C120 85, 114 65, 107 52" stroke="#E67300" stroke-width="0.8" fill="none" opacity="0.5" stroke-linecap="round"/>

  <!-- Inner middle -->
  <path d="M85 120 C78 108, 78 88, 86 72 C90 82, 88 98, 90 112 C91 118, 87 122, 86 121Z" fill="#FF9A22" stroke="#333" stroke-width="1.2" stroke-linejoin="round"/>
  <path d="M115 120 C122 108, 122 88, 114 72 C110 82, 112 98, 110 112 C109 118, 113 122, 114 121Z" fill="#FF9A22" stroke="#333" stroke-width="1.2" stroke-linejoin="round"/>

  <!-- Inner petals - darkest, tightest curl -->
  <path d="M90 95 C88 78, 92 58, 100 42 C104 55, 100 75, 98 90 C97 96, 93 98, 91 97Z" fill="#E67300" stroke="#333" stroke-width="1.2" stroke-linejoin="round"/>
  <path d="M110 95 C112 78, 108 58, 100 42 C96 55, 100 75, 102 90 C103 96, 107 98, 109 97Z" fill="#E67300" stroke="#333" stroke-width="1.2" stroke-linejoin="round"/>

  <!-- Innermost tight spiral -->
  <path d="M95 85 C94 72, 98 55, 102 48 C103 58, 100 72, 99 82 C99 86, 96 88, 96 86Z" fill="#CC5500" stroke="#333" stroke-width="1" stroke-linejoin="round"/>
  <path d="M105 85 C106 72, 102 55, 98 48 C97 58, 100 72, 101 82 C101 86, 104 88, 104 86Z" fill="#CC5500" stroke="#333" stroke-width="1" stroke-linejoin="round"/>

  <!-- Top tip of bud -->
  <path d="M97 52 C99 42, 100 35, 100 30 C100 35, 101 42, 103 52 C102 50, 98 50, 97 52Z" fill="#E67300" stroke="#333" stroke-width="1" stroke-linejoin="round"/>

  <!-- Highlight accents -->
  <path d="M92 70 C94 62, 98 52, 100 46" stroke="#FFB340" stroke-width="0.8" fill="none" opacity="0.4" stroke-linecap="round"/>
  <path d="M108 70 C106 62, 102 52, 100 46" stroke="#FFB340" stroke-width="0.8" fill="none" opacity="0.4" stroke-linecap="round"/>

  <!-- Bottom petal overlap shadows -->
  <path d="M88 135 C82 125, 80 110, 84 98" stroke="#E67300" stroke-width="1" fill="none" opacity="0.35" stroke-linecap="round"/>
  <path d="M112 135 C118 125, 120 110, 116 98" stroke="#E67300" stroke-width="1" fill="none" opacity="0.35" stroke-linecap="round"/>
</svg>
