<svg xmlns="http://www.w3.org/2000/svg" viewBox="0 0 200 280" fill="none">
  <!-- Stem -->
  <path d="M102 280 C101 265, 100 250, 101 235 C102 220, 103 210, 102 195 C101 185, 100 175, 101 168"
        stroke="#5D8A4E" stroke-width="3" stroke-linecap="round" fill="none"/>

  <!-- Feathery/serrated leaf left -->
  <path d="M101 240 C90 235, 68 238, 55 232 C48 228, 50 222, 58 220 C66 218, 80 225, 90 230 C95 233, 100 237, 101 239"
        fill="#4CAF50" stroke="#333" stroke-width="1.5" stroke-linejoin="round"/>
  <!-- Serrated edges on left leaf -->
  <path d="M85 228 C82 224, 78 226, 76 224" stroke="#333" stroke-width="1" fill="none"/>
  <path d="M75 227 C72 223, 68 225, 65 223" stroke="#333" stroke-width="1" fill="none"/>
  <path d="M66 228 C63 224, 59 226, 57 225" stroke="#333" stroke-width="1" fill="none"/>
  <!-- Leaf vein -->
  <path d="M100 238 C82 230, 68 228, 58 224" stroke="#3D8B40" stroke-width="0.8" fill="none" opacity="0.6"/>

  <!-- Feathery/serrated leaf right -->
  <path d="M103 225 C114 219, 136 221, 148 214 C155 210, 152 204, 144 203 C136 202, 120 210, 110 216 C105 219, 103 222, 103 224"
        fill="#4CAF50" stroke="#333" stroke-width="1.5" stroke-linejoin="round"/>
  <!-- Serrated edges on right leaf -->
  <path d="M118 215 C121 211, 125 213, 127 211" stroke="#333" stroke-width="1" fill="none"/>
  <path d="M129 212 C132 208, 136 210, 138 208" stroke="#333" stroke-width="1" fill="none"/>
  <path d="M140 209 C142 205, 146 207, 147 206" stroke="#333" stroke-width="1" fill="none"/>
  <!-- Leaf vein -->
  <path d="M104 222 C122 214, 136 210, 146 207" stroke="#3D8B40" stroke-width="0.8" fill="none" opacity="0.6"/>

  <!-- Small feathery leaf center -->
  <path d="M100 210 C94 205, 78 208, 70 202 C66 198, 70 194, 78 195 C84 196, 96 204, 100 208"
        fill="#6DB356" stroke="#333" stroke-width="1.5" stroke-linejoin="round"/>
  <path d="M88 202 C85 198, 82 200, 80 198" stroke="#333" stroke-width="0.8" fill="none"/>
  <path d="M79 203 C76 200, 73 201, 72 200" stroke="#333" stroke-width="0.8" fill="none"/>

  <!-- Branch to flower -->
  <path d="M101 168 C100 160, 99 152, 100 145 C101 140, 102 135, 101 130"
        stroke="#5D8A4E" stroke-width="2.5" stroke-linecap="round" fill="none"/>

  <!-- Sepals (green bits under flower) -->
  <path d="M96 132 C90 136, 82 138, 78 136 C74 134, 78 130, 84 130 C88 130, 94 130, 96 132"
        fill="#5D8A4E" stroke="#333" stroke-width="1" stroke-linejoin="round"/>
  <path d="M106 132 C112 136, 120 138, 124 136 C128 134, 124 130, 118 130 C114 130, 108 130, 106 132"
        fill="#5D8A4E" stroke="#333" stroke-width="1" stroke-linejoin="round"/>
  <path d="M101 134 C102 140, 104 146, 102 148 C100 150, 96 146, 96 142 C96 138, 100 134, 101 134"
        fill="#5D8A4E" stroke="#333" stroke-width="1" stroke-linejoin="round"/>

  <!-- Petal 1 - top -->
  <path d="M101 124 C96 112, 90 96, 92 80 C93 70, 99 64, 104 66 C109 68, 112 76, 112 86 C112 98, 106 114, 103 124"
        fill="#F0F5F5" stroke="#333" stroke-width="1.5" stroke-linejoin="round"/>
  <path d="M100 120 C97 108, 94 92, 96 82" stroke="#D0D8D8" stroke-width="1.2" fill="none" opacity="0.6"/>

  <!-- Petal 2 - top right -->
  <path d="M108 122 C116 112, 130 100, 142 94 C150 90, 156 94, 154 100 C152 106, 142 114, 130 122 C120 128, 112 128, 108 126"
        fill="#F0F5F5" stroke="#333" stroke-width="1.5" stroke-linejoin="round"/>
  <path d="M112 122 C124 112, 136 104, 144 98" stroke="#D0D8D8" stroke-width="1.2" fill="none" opacity="0.6"/>

  <!-- Petal 3 - right -->
  <path d="M110 132 C118 128, 134 122, 148 122 C158 122, 160 130, 156 134 C152 138, 140 140, 126 140 C116 140, 112 138, 110 136"
        fill="#EAEFEF" stroke="#333" stroke-width="1.5" stroke-linejoin="round"/>
  <path d="M114 132 C128 128, 140 126, 150 126" stroke="#D0D8D8" stroke-width="1.2" fill="none" opacity="0.6"/>

  <!-- Petal 4 - bottom right -->
  <path d="M108 140 C114 148, 124 162, 126 174 C128 182, 122 186, 118 182 C114 178, 110 166, 106 154 C104 146, 106 142, 108 140"
        fill="#F0F5F5" stroke="#333" stroke-width="1.5" stroke-linejoin="round"/>
  <path d="M108 144 C114 156, 120 168, 122 176" stroke="#D0D8D8" stroke-width="1.2" fill="none" opacity="0.6"/>

  <!-- Petal 5 - bottom left -->
  <path d="M96 140 C90 148, 80 162, 76 174 C74 182, 80 186, 84 182 C88 178, 90 166, 94 154 C96 146, 96 142, 96 140"
        fill="#EAEFEF" stroke="#333" stroke-width="1.5" stroke-linejoin="round"/>
  <path d="M96 144 C90 158, 82 170, 78 176" stroke="#D0D8D8" stroke-width="1.2" fill="none" opacity="0.6"/>

  <!-- Petal 6 - left -->
  <path d="M94 132 C86 128, 70 124, 56 124 C46 124, 44 132, 48 136 C52 140, 64 140, 78 140 C88 140, 92 138, 94 136"
        fill="#F0F5F5" stroke="#333" stroke-width="1.5" stroke-linejoin="round"/>
  <path d="M90 132 C78 128, 64 126, 52 128" stroke="#D0D8D8" stroke-width="1.2" fill="none" opacity="0.6"/>

  <!-- Petal 7 - top left -->
  <path d="M96 124 C88 114, 74 102, 62 96 C54 92, 48 96, 50 102 C52 108, 62 116, 74 124 C84 130, 92 128, 96 126"
        fill="#EAEFEF" stroke="#333" stroke-width="1.5" stroke-linejoin="round"/>
  <path d="M92 122 C80 114, 68 106, 58 100" stroke="#D0D8D8" stroke-width="1.2" fill="none" opacity="0.6"/>

  <!-- Center - dark navy -->
  <circle cx="101" cy="130" r="14" fill="#1A1A3E" stroke="#333" stroke-width="1.5"/>
  <circle cx="101" cy="130" r="9" fill="#252550" stroke="none"/>

  <!-- Center dots (stamens) -->
  <circle cx="96" cy="126" r="1.3" fill="#F5F5DC" opacity="0.9"/>
  <circle cx="100" cy="124" r="1.3" fill="#F5F5DC" opacity="0.9"/>
  <circle cx="104" cy="125" r="1.3" fill="#F5F5DC" opacity="0.9"/>
  <circle cx="107" cy="128" r="1.3" fill="#F5F5DC" opacity="0.9"/>
  <circle cx="107" cy="132" r="1.3" fill="#F5F5DC" opacity="0.9"/>
  <circle cx="105" cy="135" r="1.3" fill="#F5F5DC" opacity="0.9"/>
  <circle cx="101" cy="137" r="1.3" fill="#F5F5DC" opacity="0.9"/>
  <circle cx="97" cy="136" r="1.3" fill="#F5F5DC" opacity="0.9"/>
  <circle cx="95" cy="132" r="1.3" fill="#F5F5DC" opacity="0.9"/>
  <circle cx="95" cy="128" r="1.3" fill="#F5F5DC" opacity="0.9"/>
  <circle cx="99" cy="128" r="1" fill="#FFFFCC" opacity="0.7"/>
  <circle cx="103" cy="129" r="1" fill="#FFFFCC" opacity="0.7"/>
  <circle cx="101" cy="132" r="1" fill="#FFFFCC" opacity="0.7"/>
  <circle cx="98" cy="132" r="1" fill="#FFFFCC" opacity="0.7"/>
  <circle cx="103" cy="133" r="1" fill="#FFFFCC" opacity="0.7"/>
</svg>
