<svg xmlns="http://www.w3.org/2000/svg" viewBox="0 0 200 280" fill="none">
  <!-- Main stem - curves opposite direction from fern_vertical -->
  <path d="M96 270 C98 242, 102 215, 103 188 C104 160, 100 132, 98 105 C96 80, 98 55, 100 20"
        stroke="#5D8B3E" stroke-width="3" stroke-linecap="round" fill="none"/>

  <!-- Leaf pair 1 (bottom, largest, rounder) -->
  <path d="M97 258 C84 252, 58 256, 48 248 C42 242, 50 236, 64 238 C74 240, 92 250, 97 255"
        fill="#7CB55E" stroke="#333" stroke-width="1.5" stroke-linejoin="round"/>
  <path d="M96 254 C76 246, 60 246, 52 242" stroke="#5D8B3E" stroke-width="0.8" fill="none" opacity="0.5"/>
  <path d="M99 258 C112 252, 138 256, 148 248 C154 242, 146 236, 132 238 C122 240, 104 250, 99 255"
        fill="#5D8B3E" stroke="#333" stroke-width="1.5" stroke-linejoin="round"/>
  <path d="M100 254 C120 246, 136 246, 144 242" stroke="#7CB55E" stroke-width="0.8" fill="none" opacity="0.5"/>

  <!-- Leaf pair 2 -->
  <path d="M99 234 C87 227, 64 230, 56 224 C50 218, 58 214, 70 216 C78 218, 96 228, 99 232"
        fill="#5D8B3E" stroke="#333" stroke-width="1.5" stroke-linejoin="round"/>
  <path d="M101 234 C113 228, 137 231, 144 225 C150 219, 142 215, 130 217 C122 219, 104 228, 101 232"
        fill="#7CB55E" stroke="#333" stroke-width="1.5" stroke-linejoin="round"/>

  <!-- Leaf pair 3 -->
  <path d="M101 212 C89 206, 68 209, 60 203 C55 198, 62 194, 73 196 C80 198, 98 208, 101 210"
        fill="#7CB55E" stroke="#333" stroke-width="1.5" stroke-linejoin="round"/>
  <path d="M103 212 C115 206, 136 209, 143 203 C148 198, 141 194, 130 196 C123 198, 106 208, 103 210"
        fill="#5D8B3E" stroke="#333" stroke-width="1.5" stroke-linejoin="round"/>

  <!-- Leaf pair 4 -->
  <path d="M103 190 C92 184, 74 187, 67 182 C62 177, 68 174, 78 176 C84 178, 100 186, 103 188"
        fill="#5D8B3E" stroke="#333" stroke-width="1.5" stroke-linejoin="round"/>
  <path d="M104 190 C115 184, 133 187, 139 182 C144 177, 138 174, 128 176 C122 178, 107 186, 104 188"
        fill="#7CB55E" stroke="#333" stroke-width="1.5" stroke-linejoin="round"/>

  <!-- Leaf pair 5 -->
  <path d="M102 168 C92 163, 76 165, 70 160 C66 156, 72 153, 80 155 C86 157, 100 164, 102 166"
        fill="#7CB55E" stroke="#333" stroke-width="1.5" stroke-linejoin="round"/>
  <path d="M103 168 C113 163, 129 165, 134 160 C138 156, 132 153, 124 155 C118 157, 105 164, 103 166"
        fill="#5D8B3E" stroke="#333" stroke-width="1.5" stroke-linejoin="round"/>

  <!-- Leaf pair 6 -->
  <path d="M101 146 C92 142, 79 143, 74 139 C70 135, 76 133, 83 134 C88 136, 99 142, 101 144"
        fill="#5D8B3E" stroke="#333" stroke-width="1.5" stroke-linejoin="round"/>
  <path d="M101 146 C110 142, 123 143, 128 139 C132 135, 126 133, 119 134 C114 136, 103 142, 101 144"
        fill="#7CB55E" stroke="#333" stroke-width="1.5" stroke-linejoin="round"/>

  <!-- Leaf pair 7 -->
  <path d="M99 125 C92 121, 80 122, 76 118 C73 114, 78 113, 84 114 C88 116, 98 122, 99 124"
        fill="#7CB55E" stroke="#333" stroke-width="1.5" stroke-linejoin="round"/>
  <path d="M100 125 C107 121, 119 122, 123 118 C126 114, 121 113, 115 114 C111 116, 102 122, 100 124"
        fill="#5D8B3E" stroke="#333" stroke-width="1.5" stroke-linejoin="round"/>

  <!-- Leaf pair 8 -->
  <path d="M98 104 C92 100, 83 101, 80 98 C77 95, 81 93, 87 94 C90 95, 97 101, 98 103"
        fill="#5D8B3E" stroke="#333" stroke-width="1.5" stroke-linejoin="round"/>
  <path d="M99 104 C105 100, 114 101, 117 98 C120 95, 116 93, 110 94 C107 95, 100 101, 99 103"
        fill="#7CB55E" stroke="#333" stroke-width="1.5" stroke-linejoin="round"/>

  <!-- Leaf pair 9 (small) -->
  <path d="M98 84 C93 81, 86 82, 84 79 C82 76, 86 75, 90 76 C93 77, 97 81, 98 83"
        fill="#7CB55E" stroke="#333" stroke-width="1.5" stroke-linejoin="round"/>
  <path d="M99 84 C104 81, 111 82, 113 79 C115 76, 111 75, 107 76 C104 77, 100 81, 99 83"
        fill="#5D8B3E" stroke="#333" stroke-width="1.5" stroke-linejoin="round"/>

  <!-- Leaf pair 10 (tiny) -->
  <path d="M99 64 C95 61, 89 62, 88 59 C87 56, 91 56, 94 57 C96 58, 98 62, 99 63"
        fill="#5D8B3E" stroke="#333" stroke-width="1.2" stroke-linejoin="round"/>
  <path d="M100 64 C104 61, 110 62, 111 59 C112 56, 108 56, 105 57 C103 58, 101 62, 100 63"
        fill="#7CB55E" stroke="#333" stroke-width="1.2" stroke-linejoin="round"/>

  <!-- Tiny tip leaves -->
  <path d="M99 44 C96 41, 92 42, 91 39 C90 37, 93 36, 96 38 C98 39, 99 42, 99 43"
        fill="#7CB55E" stroke="#333" stroke-width="1" stroke-linejoin="round"/>
  <path d="M100 44 C103 41, 107 42, 108 39 C109 37, 106 36, 103 38 C101 39, 100 42, 100 43"
        fill="#5D8B3E" stroke="#333" stroke-width="1" stroke-linejoin="round"/>

  <!-- Very tip bud -->
  <path d="M100 28 C98 24, 97 22, 99 20 C100 19, 101 20, 101 22 C101 24, 100 27, 100 28"
        fill="#7CB55E" stroke="#333" stroke-width="0.8" stroke-linejoin="round"/>
</svg>
