<svg xmlns="http://www.w3.org/2000/svg" viewBox="0 0 200 280" fill="none">
  <!-- Stem -->
  <path d="M102 170 C101 190, 99 215, 98 240 C97 255, 99 268, 100 278" stroke="#4CAF50" stroke-width="3.5" stroke-linecap="round" fill="none"/>
  <path d="M102 170 C103 192, 100 220, 99 245 C98 258, 100 270, 100 278" stroke="#3D8B37" stroke-width="1.5" stroke-linecap="round" fill="none" opacity="0.4"/>

  <!-- Thorns -->
  <path d="M100 200 L106 194" stroke="#4CAF50" stroke-width="2" stroke-linecap="round"/>
  <path d="M99 225 L93 220" stroke="#4CAF50" stroke-width="2" stroke-linecap="round"/>

  <!-- Leaf 1 - right -->
  <path d="M100 210 C112 200, 135 190, 152 186 C148 195, 133 206, 115 212 C108 214, 102 213, 100 212" fill="#4CAF50" stroke="#333" stroke-width="1.5" stroke-linejoin="round"/>
  <path d="M101 211 C118 204, 135 196, 150 188" stroke="#3D8B37" stroke-width="1" fill="none" stroke-linecap="round"/>
  <path d="M112 207 L118 200" stroke="#3D8B37" stroke-width="0.7" fill="none" stroke-linecap="round"/>
  <path d="M125 202 L130 195" stroke="#3D8B37" stroke-width="0.7" fill="none" stroke-linecap="round"/>
  <path d="M138 196 L141 190" stroke="#3D8B37" stroke-width="0.7" fill="none" stroke-linecap="round"/>

  <!-- Leaf 2 - left -->
  <path d="M99 240 C88 232, 62 222, 45 220 C50 230, 68 242, 88 246 C94 247, 98 244, 99 242" fill="#4CAF50" stroke="#333" stroke-width="1.5" stroke-linejoin="round"/>
  <path d="M98 242 C80 234, 62 228, 47 222" stroke="#3D8B37" stroke-width="1" fill="none" stroke-linecap="round"/>
  <path d="M85 238 L79 232" stroke="#3D8B37" stroke-width="0.7" fill="none" stroke-linecap="round"/>
  <path d="M72 233 L66 228" stroke="#3D8B37" stroke-width="0.7" fill="none" stroke-linecap="round"/>

  <!-- Sepals -->
  <path d="M88 168 C82 160, 72 148, 68 138 C75 143, 85 155, 92 166" fill="#4CAF50" stroke="#333" stroke-width="1.2" stroke-linejoin="round"/>
  <path d="M112 168 C118 160, 128 148, 132 138 C125 143, 115 155, 108 166" fill="#4CAF50" stroke="#333" stroke-width="1.2" stroke-linejoin="round"/>
  <path d="M96 172 C90 168, 78 162, 72 155 C80 158, 90 165, 98 170" fill="#3D8B37" stroke="#333" stroke-width="1" stroke-linejoin="round"/>
  <path d="M104 172 C110 168, 122 162, 128 155 C120 158, 110 165, 102 170" fill="#3D8B37" stroke="#333" stroke-width="1" stroke-linejoin="round"/>

  <!-- Outer petals - large, open -->
  <path d="M60 120 C55 100, 62 72, 78 55 C85 65, 82 95, 85 115 C84 120, 75 128, 65 125" fill="#CC0033" stroke="#333" stroke-width="1.5" stroke-linejoin="round"/>
  <path d="M140 120 C145 100, 138 72, 122 55 C115 65, 118 95, 115 115 C116 120, 125 128, 135 125" fill="#CC0033" stroke="#333" stroke-width="1.5" stroke-linejoin="round"/>
  <path d="M70 140 C55 130, 45 108, 50 85 C58 95, 62 115, 72 132 C75 137, 73 142, 72 142" fill="#CC0033" stroke="#333" stroke-width="1.5" stroke-linejoin="round"/>
  <path d="M130 140 C145 130, 155 108, 150 85 C142 95, 138 115, 128 132 C125 137, 127 142, 128 142" fill="#CC0033" stroke="#333" stroke-width="1.5" stroke-linejoin="round"/>
  <path d="M80 155 C65 148, 52 130, 52 110 C62 118, 70 135, 82 148 C85 152, 83 156, 82 156" fill="#CC0033" stroke="#333" stroke-width="1.5" stroke-linejoin="round"/>
  <path d="M120 155 C135 148, 148 130, 148 110 C138 118, 130 135, 118 148 C115 152, 117 156, 118 156" fill="#CC0033" stroke="#333" stroke-width="1.5" stroke-linejoin="round"/>

  <!-- Bottom petal -->
  <path d="M85 165 C75 160, 65 145, 68 128 C78 138, 82 150, 88 160 C90 163, 87 166, 86 166" fill="#CC0033" stroke="#333" stroke-width="1.5" stroke-linejoin="round"/>
  <path d="M115 165 C125 160, 135 145, 132 128 C122 138, 118 150, 112 160 C110 163, 113 166, 114 166" fill="#CC0033" stroke="#333" stroke-width="1.5" stroke-linejoin="round"/>

  <!-- Middle petals -->
  <path d="M82 110 C78 92, 85 68, 95 55 C98 68, 92 90, 90 108 C89 114, 86 116, 84 114" fill="#B8002D" stroke="#333" stroke-width="1.3" stroke-linejoin="round"/>
  <path d="M118 110 C122 92, 115 68, 105 55 C102 68, 108 90, 110 108 C111 114, 114 116, 116 114" fill="#B8002D" stroke="#333" stroke-width="1.3" stroke-linejoin="round"/>
  <path d="M88 130 C78 118, 75 98, 82 82 C88 95, 88 112, 92 125 C93 129, 90 132, 89 131" fill="#B8002D" stroke="#333" stroke-width="1.3" stroke-linejoin="round"/>
  <path d="M112 130 C122 118, 125 98, 118 82 C112 95, 112 112, 108 125 C107 129, 110 132, 111 131" fill="#B8002D" stroke="#333" stroke-width="1.3" stroke-linejoin="round"/>

  <!-- Inner petals - darker, spiral center -->
  <path d="M92 100 C90 88, 95 72, 102 62 C103 74, 98 88, 96 98 C96 102, 94 103, 93 102" fill="#8B0000" stroke="#333" stroke-width="1.2" stroke-linejoin="round"/>
  <path d="M108 100 C110 88, 105 72, 98 62 C97 74, 102 88, 104 98 C104 102, 106 103, 107 102" fill="#8B0000" stroke="#333" stroke-width="1.2" stroke-linejoin="round"/>
  <path d="M95 115 C88 105, 88 90, 94 78 C96 90, 95 104, 97 112 C98 115, 96 117, 96 116" fill="#8B0000" stroke="#333" stroke-width="1.2" stroke-linejoin="round"/>
  <path d="M105 115 C112 105, 112 90, 106 78 C104 90, 105 104, 103 112 C102 115, 104 117, 104 116" fill="#8B0000" stroke="#333" stroke-width="1.2" stroke-linejoin="round"/>

  <!-- Innermost spiral curl -->
  <path d="M97 95 C96 85, 100 75, 104 72 C103 80, 100 88, 100 94" fill="#8B0000" stroke="#5A0000" stroke-width="1" stroke-linejoin="round"/>
  <path d="M100 105 C95 100, 94 92, 98 85 C100 92, 100 98, 101 103" fill="#8B0000" stroke="#5A0000" stroke-width="1" stroke-linejoin="round"/>

  <!-- Shadow accents on petals -->
  <path d="M70 115 C68 105, 72 88, 80 78" stroke="#8B0000" stroke-width="1" fill="none" opacity="0.4" stroke-linecap="round"/>
  <path d="M130 115 C132 105, 128 88, 120 78" stroke="#8B0000" stroke-width="1" fill="none" opacity="0.4" stroke-linecap="round"/>
</svg>
