<svg xmlns="http://www.w3.org/2000/svg" viewBox="0 0 400 80" fill="none">
  <!-- Main horizontal stem - gently curving -->
  <path d="M5 42 C30 38, 60 36, 90 40 C120 44, 150 48, 180 42 C210 36, 240 32, 270 38 C300 44, 330 46, 360 40 C375 37, 390 38, 395 40"
        stroke="#5D8A4E" stroke-width="2.5" stroke-linecap="round" fill="none"/>

  <!-- Leaf 1 - top left -->
  <path d="M28 38 C24 30, 18 24, 14 22 C10 20, 10 24, 12 28 C14 32, 22 36, 28 38"
        fill="#6DB356" stroke="#333" stroke-width="1.5" stroke-linejoin="round"/>

  <!-- Leaf 2 - bottom -->
  <path d="M50 38 C52 46, 50 54, 46 58 C42 62, 38 58, 40 54 C42 50, 48 42, 50 38"
        fill="#4CAF50" stroke="#333" stroke-width="1.5" stroke-linejoin="round"/>

  <!-- Leaf 3 - top -->
  <path d="M75 38 C72 30, 66 24, 62 22 C58 20, 58 24, 60 28 C62 32, 70 36, 75 38"
        fill="#6DB356" stroke="#333" stroke-width="1.5" stroke-linejoin="round"/>

  <!-- Leaf 4 - bottom -->
  <path d="M100 42 C103 50, 102 58, 98 62 C94 66, 90 62, 92 58 C94 54, 98 46, 100 42"
        fill="#4CAF50" stroke="#333" stroke-width="1.5" stroke-linejoin="round"/>

  <!-- Leaf 5 - top -->
  <path d="M125 44 C122 36, 116 30, 112 28 C108 26, 108 30, 110 34 C112 38, 120 42, 125 44"
        fill="#6DB356" stroke="#333" stroke-width="1.5" stroke-linejoin="round"/>

  <!-- Leaf 6 - bottom -->
  <path d="M150 46 C154 54, 154 62, 150 66 C146 70, 142 66, 144 62 C146 58, 150 50, 150 46"
        fill="#4CAF50" stroke="#333" stroke-width="1.5" stroke-linejoin="round"/>

  <!-- Leaf 7 - top -->
  <path d="M172 44 C168 36, 162 30, 158 28 C154 26, 154 30, 156 34 C158 38, 166 42, 172 44"
        fill="#6DB356" stroke="#333" stroke-width="1.5" stroke-linejoin="round"/>

  <!-- Small curl/tendril -->
  <path d="M190 40 C192 34, 196 30, 200 28 C204 26, 206 28, 204 32"
        stroke="#5D8A4E" stroke-width="1.5" stroke-linecap="round" fill="none"/>

  <!-- Leaf 8 - bottom -->
  <path d="M205 40 C208 48, 208 56, 204 60 C200 64, 196 60, 198 56 C200 52, 204 44, 205 40"
        fill="#4CAF50" stroke="#333" stroke-width="1.5" stroke-linejoin="round"/>

  <!-- Leaf 9 - top -->
  <path d="M228 36 C224 28, 218 22, 214 20 C210 18, 210 22, 212 26 C214 30, 222 34, 228 36"
        fill="#6DB356" stroke="#333" stroke-width="1.5" stroke-linejoin="round"/>

  <!-- Leaf 10 - bottom -->
  <path d="M250 36 C254 44, 254 52, 250 56 C246 60, 242 56, 244 52 C246 48, 250 40, 250 36"
        fill="#4CAF50" stroke="#333" stroke-width="1.5" stroke-linejoin="round"/>

  <!-- Leaf 11 - top -->
  <path d="M275 38 C272 30, 266 24, 262 22 C258 20, 258 24, 260 28 C262 32, 270 36, 275 38"
        fill="#6DB356" stroke="#333" stroke-width="1.5" stroke-linejoin="round"/>

  <!-- Small curl/tendril -->
  <path d="M288 42 C290 48, 294 52, 298 54 C302 56, 304 52, 302 48"
        stroke="#5D8A4E" stroke-width="1.5" stroke-linecap="round" fill="none"/>

  <!-- Leaf 12 - bottom -->
  <path d="M305 42 C308 50, 308 58, 304 62 C300 66, 296 62, 298 58 C300 54, 304 46, 305 42"
        fill="#4CAF50" stroke="#333" stroke-width="1.5" stroke-linejoin="round"/>

  <!-- Leaf 13 - top -->
  <path d="M328 44 C324 36, 318 30, 314 28 C310 26, 310 30, 312 34 C314 38, 322 42, 328 44"
        fill="#6DB356" stroke="#333" stroke-width="1.5" stroke-linejoin="round"/>

  <!-- Leaf 14 - bottom -->
  <path d="M350 42 C354 50, 354 58, 350 62 C346 66, 342 62, 344 58 C346 54, 350 46, 350 42"
        fill="#4CAF50" stroke="#333" stroke-width="1.5" stroke-linejoin="round"/>

  <!-- Leaf 15 - top right -->
  <path d="M375 38 C372 30, 368 26, 364 24 C360 22, 360 26, 362 30 C364 34, 370 36, 375 38"
        fill="#6DB356" stroke="#333" stroke-width="1.5" stroke-linejoin="round"/>

  <!-- Tiny end leaf -->
  <path d="M392 40 C394 36, 396 32, 394 30 C392 28, 388 30, 390 34 C391 36, 392 38, 392 40"
        fill="#6DB356" stroke="#333" stroke-width="1.2" stroke-linejoin="round"/>

  <!-- Tiny start leaf -->
  <path d="M10 42 C8 38, 6 34, 8 32 C10 30, 14 32, 12 36 C11 38, 10 40, 10 42"
        fill="#4CAF50" stroke="#333" stroke-width="1.2" stroke-linejoin="round"/>

  <!-- Small decorative dots/berries -->
  <circle cx="140" cy="46" r="2.5" fill="#5D8A4E" stroke="#333" stroke-width="1" opacity="0.7"/>
  <circle cx="260" cy="38" r="2.5" fill="#5D8A4E" stroke="#333" stroke-width="1" opacity="0.7"/>
</svg>
